<?xml version="1.0" standalone="no"?>
<!DOCTYPE svg PUBLIC "-//W3C//DTD SVG 20010904//EN"
 "http://www.w3.org/TR/2001/REC-SVG-20010904/DTD/svg10.dtd">
<svg version="1.0" xmlns="http://www.w3.org/2000/svg"
 width="2084.000000pt" height="1320.000000pt" viewBox="0 0 2084.000000 1320.000000"
 preserveAspectRatio="xMidYMid meet">

<g transform="translate(0.000000,1320.000000) scale(0.100000,-0.100000)"
fill="#000000" stroke="none">
<path d="M0 6740 l0 -6460 3483 0 c2998 0 3505 2 3650 15 844 74 1620 329
2212 725 258 173 559 447 735 670 407 514 643 1127 725 1890 22 201 31 751 16
960 -85 1164 -507 2028 -1194 2449 -290 178 -658 287 -1037 308 -99 6 -109 8
-75 16 274 60 438 114 630 207 218 106 470 290 615 447 332 360 516 777 597
1353 25 180 25 725 0 930 -105 848 -398 1480 -918 1985 -543 527 -1242 829
-2179 942 -135 16 -386 18 -3702 20 l-3558 3 0 -6460z m6841 4146 c389 -83
670 -418 760 -907 30 -163 38 -599 15 -818 -30 -281 -82 -478 -175 -657 -151
-293 -391 -440 -768 -473 -76 -7 -760 -11 -1915 -11 l-1798 0 0 1440 0 1440
1908 0 c1601 0 1918 -3 1973 -14z m94 -4883 c135 -31 237 -68 354 -128 422
-217 676 -614 767 -1201 26 -168 27 -658 1 -819 -35 -220 -81 -373 -159 -533
-174 -357 -481 -592 -904 -691 -221 -51 -210 -51 -2191 -51 l-1843 0 0 1725 0
1725 1943 -3 c1932 -3 1942 -3 2032 -24z"/>
<path d="M13520 11645 l0 -795 2665 0 2665 0 0 795 0 795 -2665 0 -2665 0 0
-795z"/>
<path d="M16135 9913 c-347 -7 -729 -47 -1040 -109 -1147 -226 -2038 -772
-2698 -1650 -536 -714 -916 -1730 -1031 -2759 -140 -1251 164 -2577 806 -3522
264 -388 622 -751 1003 -1018 666 -466 1488 -735 2515 -825 222 -19 812 -31
1039 -20 1056 49 1979 315 2651 763 179 119 309 226 471 387 245 244 382 432
530 725 210 417 320 865 336 1368 l6 197 -1136 0 -1135 0 -7 -77 c-28 -311
-157 -577 -386 -797 -278 -267 -668 -427 -1199 -491 -208 -26 -670 -31 -845
-11 -832 97 -1436 509 -1716 1171 -116 275 -189 639 -189 947 l0 108 3344 0
3344 0 6 38 c29 185 38 843 17 1137 -64 865 -236 1568 -537 2193 -105 218
-161 318 -289 512 -610 923 -1539 1484 -2765 1669 -313 47 -738 72 -1095 64z
m535 -1913 c395 -49 733 -192 1000 -423 280 -244 502 -649 594 -1086 27 -128
56 -343 56 -418 l0 -43 -2120 0 c-1166 0 -2120 3 -2120 8 0 28 55 239 90 347
133 408 339 754 610 1025 351 351 802 552 1345 600 119 10 425 5 545 -10z"/>
</g>
</svg>
