<?xml version="1.0" standalone="no"?>
<!DOCTYPE svg PUBLIC "-//W3C//DTD SVG 20010904//EN"
 "http://www.w3.org/TR/2001/REC-SVG-20010904/DTD/svg10.dtd">
<svg version="1.0" xmlns="http://www.w3.org/2000/svg"
 width="600.000000pt" height="600.000000pt" viewBox="0 0 600.000000 600.000000"
 preserveAspectRatio="xMidYMid meet">

<g transform="translate(0.000000,600.000000) scale(0.100000,-0.100000)"
fill="#000000" stroke="none">
<path d="M2830 5470 c-510 -36 -999 -228 -1396 -548 -129 -103 -354 -337 -454
-470 -222 -296 -392 -729 -445 -1135 -17 -134 -20 -435 -5 -572 48 -435 221
-875 481 -1220 86 -114 217 -260 294 -327 57 -50 55 -42 -7 27 -16 16 -28 36
-28 43 0 7 -7 15 -15 18 -8 4 -15 12 -15 20 0 8 -4 14 -10 14 -5 0 -10 7 -10
15 0 8 -4 15 -10 15 -5 0 -10 6 -10 13 0 7 -13 31 -30 54 -16 22 -27 43 -23
47 3 3 1 6 -5 6 -6 0 -16 10 -23 21 -9 17 -8 20 2 14 14 -9 5 10 -19 37 -7 9
-11 22 -6 29 4 8 3 10 -4 5 -8 -5 -12 3 -12 23 0 16 -4 33 -10 36 -5 3 -10 17
-10 31 0 17 -4 23 -12 18 -8 -5 -9 -2 -5 9 3 10 3 17 -2 17 -12 0 -21 39 -11
45 4 2 5 16 3 30 -3 13 -9 22 -14 19 -5 -3 -9 2 -9 11 0 9 4 13 10 10 6 -4 9
13 8 42 -1 26 2 54 6 62 6 9 5 12 -1 8 -6 -4 -13 0 -16 7 -3 8 -1 17 6 19 8 3
6 10 -7 19 -15 12 -18 23 -13 53 4 21 12 42 19 47 10 6 10 10 -2 18 -8 5 -10
10 -4 10 15 0 24 69 11 77 -6 3 -7 1 -3 -5 4 -7 2 -12 -3 -12 -6 0 -11 7 -11
15 0 8 5 15 10 15 6 0 10 8 8 17 -2 13 3 18 20 17 18 -1 26 6 34 27 5 16 14
29 19 29 5 0 11 0 14 0 3 0 14 8 24 18 38 33 49 41 55 35 3 -3 10 6 15 21 6
14 13 26 15 26 3 0 2 -7 -1 -17 -4 -11 -3 -14 5 -9 7 4 12 14 12 22 0 8 5 12
10 9 6 -4 8 -11 5 -16 -4 -5 -1 -9 4 -9 6 0 11 6 11 13 0 9 11 13 30 12 17 -1
33 2 36 7 3 4 10 6 15 2 5 -3 17 0 26 8 12 9 15 9 9 1 -4 -7 -2 -13 3 -13 6 0
11 4 11 9 0 4 15 12 33 17 l32 10 6 684 c7 654 8 689 28 765 23 88 83 220 131
290 l30 44 -94 -33 c-107 -38 -268 -81 -338 -91 -100 -13 -178 37 -178 115 0
50 44 199 81 277 100 210 329 439 605 604 157 93 459 242 493 242 50 0 197
-78 254 -135 116 -115 162 -303 115 -468 -18 -63 -51 -145 -70 -169 -10 -13
-18 -28 -18 -32 0 -5 281 -9 628 -9 575 0 635 -2 718 -19 335 -69 601 -346
654 -681 8 -54 10 -297 8 -870 l-3 -795 -24 -70 c-70 -210 -199 -377 -378
-489 -42 -26 -42 -26 -40 -81 2 -31 -1 -59 -5 -61 -5 -3 -6 -13 -3 -23 3 -9
-4 -57 -15 -107 -10 -50 -17 -103 -14 -118 3 -18 1 -25 -6 -21 -5 3 -10 -1
-10 -10 0 -10 5 -13 12 -9 15 10 5 -52 -27 -163 -14 -47 -25 -93 -25 -104 0
-10 -4 -20 -9 -23 -5 -3 -9 -16 -9 -28 0 -13 -6 -36 -13 -53 -7 -16 -12 -33
-11 -37 1 -5 -2 -8 -6 -8 -4 0 -8 -9 -8 -20 0 -26 9 -23 181 60 760 370 1277
1115 1366 1969 15 143 6 481 -15 611 -93 551 -317 992 -700 1376 -249 248
-512 423 -831 551 -337 135 -735 198 -1095 173z m-1757 -3210 c-3 -12 -8 -19
-11 -16 -5 6 5 36 12 36 2 0 2 -9 -1 -20z"/>
<path d="M2171 4234 c-156 -42 -301 -159 -366 -295 -60 -127 -65 -169 -65
-594 0 -461 10 -845 22 -845 5 0 6 5 2 11 -4 8 0 8 15 0 16 -9 26 -9 42 0 12
6 19 7 16 2 -4 -5 7 -10 23 -10 16 0 27 3 26 6 -2 3 37 5 87 4 63 -2 94 2 99
10 6 9 8 9 8 0 0 -16 32 -17 47 -2 8 8 13 8 17 0 4 -6 12 -11 17 -11 6 0 7 6
3 13 -6 9 -4 9 8 -1 13 -10 17 -10 21 0 4 10 6 10 6 1 1 -16 33 -17 48 -2 8 8
13 8 17 0 4 -6 12 -11 17 -11 6 0 7 6 3 13 -6 9 -4 9 8 -1 13 -10 17 -10 21 0
4 10 6 10 6 1 1 -15 41 -18 41 -4 0 5 -16 36 -35 68 -244 410 -84 930 347
1127 113 52 196 69 328 69 357 -2 653 -224 756 -568 22 -75 27 -110 27 -210 1
-215 -64 -385 -212 -546 -35 -38 -62 -71 -60 -72 2 -1 14 -8 26 -14 13 -7 30
-13 38 -13 8 0 15 -4 15 -8 0 -17 51 -33 66 -21 10 8 17 7 28 -4 8 -8 12 -17
9 -21 -4 -3 -1 -6 5 -6 7 0 12 5 12 10 0 6 5 10 11 10 5 0 7 -4 4 -10 -3 -5 1
-10 10 -10 9 0 13 5 10 10 -3 6 -2 10 4 10 5 0 13 -9 16 -21 6 -17 9 -18 23
-7 12 10 14 10 8 1 -4 -8 -2 -14 6 -15 7 0 18 -2 24 -2 14 -2 53 -28 82 -55
13 -13 27 -19 35 -15 8 5 7 2 -2 -9 -8 -11 -9 -17 -3 -17 7 0 9 -7 5 -17 -4
-11 -3 -14 5 -9 11 7 17 -13 13 -38 -1 -5 6 -3 15 5 16 13 16 12 5 -8 -7 -14
-8 -23 -2 -23 6 0 15 -10 22 -21 6 -12 7 -19 2 -16 -11 7 -11 -38 0 -49 11
-11 9 -26 -3 -19 -5 3 -10 2 -10 -4 0 -15 18 -23 25 -11 4 6 11 8 16 4 6 -4 6
-11 -2 -20 -6 -7 -15 -11 -20 -8 -5 3 -6 -2 -3 -11 5 -13 9 -13 22 -3 14 12
14 10 3 -11 -11 -19 -11 -22 0 -16 9 6 10 3 5 -10 -5 -15 0 -13 26 7 49 37
133 158 159 230 l24 63 3 790 3 790 -25 81 c-57 183 -213 330 -403 379 -84 22
-1570 21 -1652 -1z m1766 -260 c56 -45 75 -87 71 -160 -3 -49 -10 -69 -32 -99
-79 -103 -232 -96 -307 13 -35 52 -34 143 3 199 57 87 186 110 265 47z m-37
-1714 c0 -5 -4 -10 -10 -10 -5 0 -10 5 -10 10 0 6 5 10 10 10 6 0 10 -4 10
-10z m120 -240 c0 -5 -4 -10 -10 -10 -5 0 -10 5 -10 10 0 6 5 10 10 10 6 0 10
-4 10 -10z"/>
<path d="M2910 3513 c-14 -2 -52 -13 -85 -25 -243 -85 -386 -339 -334 -590 26
-124 119 -258 229 -328 64 -41 161 -71 185 -57 11 6 15 6 12 0 -6 -9 10 -11
138 -13 151 -3 327 115 407 273 149 295 -20 656 -343 732 -60 14 -151 18 -209
8z"/>
<path d="M1037 2219 c7 -7 15 -10 18 -7 3 3 -2 9 -12 12 -14 6 -15 5 -6 -5z"/>
<path d="M1021 2063 c1 -4 0 -10 -1 -13 -8 -20 -9 -60 -1 -60 11 0 20 70 9 76
-5 3 -8 2 -7 -3z"/>
</g>
</svg>
